<svg width="48" height="48" viewBox="0 0 48 48" fill="none" xmlns="http://www.w3.org/2000/svg">
<rect width="48" height="48" rx="4" fill="#D9D9D9"/>
<path fill-rule="evenodd" clip-rule="evenodd" d="M30.8571 9H25.7143V11.1H30.8571C31.0845 11.1 31.3025 11.2106 31.4632 11.4075C31.624 11.6045 31.7143 11.8715 31.7143 12.15C31.7143 12.4285 31.624 12.6955 31.4632 12.8925C31.3025 13.0894 31.0845 13.2 30.8571 13.2H28.2857C28.1589 13.2001 28.0338 13.2346 27.9192 13.3011C27.8047 13.3676 27.7036 13.4644 27.6232 13.5845C27.5429 13.7046 27.4853 13.8451 27.4546 13.9957C27.4239 14.1464 27.4209 14.3035 27.4457 14.4558L28.2377 19.3078L26.0863 23.7H23.7806L21.576 14.6963C21.4715 14.2626 21.2548 13.8823 20.9587 13.6124C20.6625 13.3426 20.3028 13.1979 19.9337 13.2H15.4286V15.3H19.9337L20.448 17.4H16.2857C15.1495 17.4017 14.0602 17.9553 13.2568 18.9395C12.4533 19.9237 12.0014 21.2581 12 22.65V24.75C12 25.0285 12.0903 25.2956 12.2511 25.4925C12.4118 25.6894 12.6298 25.8 12.8571 25.8H13.7143C13.7143 26.9139 14.0755 27.9822 14.7185 28.7698C15.3615 29.5575 16.2335 30 17.1429 30C18.0522 30 18.9242 29.5575 19.5672 28.7698C20.2102 27.9822 20.5714 26.9139 20.5714 25.8H26.5714C26.7193 25.8 26.8647 25.7531 26.9934 25.6638C27.1221 25.5746 27.2298 25.4461 27.306 25.2908L29.8774 20.0408C29.9872 19.8166 30.0248 19.5505 29.9828 19.2942L29.3314 15.3H30.8571C31.5391 15.3 32.1932 14.9681 32.6754 14.3774C33.1576 13.7866 33.4286 12.9854 33.4286 12.15C33.4286 11.3146 33.1576 10.5134 32.6754 9.92261C32.1932 9.33187 31.5391 9 30.8571 9ZM17.1429 27.9C16.6883 27.8994 16.2526 27.678 15.9312 27.2843C15.6098 26.8906 15.429 26.3568 15.4286 25.8H18.8571C18.8567 26.3568 18.6759 26.8906 18.3545 27.2843C18.0331 27.678 17.5974 27.8994 17.1429 27.9ZM32.5714 29.9999C31.8933 29.9999 31.2305 29.7535 30.6666 29.292C30.1028 28.8305 29.6634 28.1746 29.4039 27.4071C29.1444 26.6397 29.0765 25.7952 29.2087 24.9805C29.341 24.1658 29.6676 23.4174 30.1471 22.83C30.6266 22.2426 31.2375 21.8426 31.9026 21.6806C32.5676 21.5185 33.257 21.6017 33.8835 21.9196C34.51 22.2374 35.0455 22.7758 35.4222 23.4665C35.7989 24.1571 36 24.9692 36 25.7999C35.9989 26.9133 35.6373 27.9808 34.9946 28.7682C34.3518 29.5555 33.4804 29.9985 32.5714 29.9999ZM32.5714 23.6999C32.2324 23.6999 31.9009 23.823 31.619 24.0538C31.3371 24.2845 31.1174 24.6125 30.9876 24.9962C30.8579 25.3799 30.8239 25.8022 30.8901 26.2095C30.9562 26.6169 31.1195 26.9911 31.3593 27.2848C31.599 27.5785 31.9045 27.7785 32.237 27.8595C32.5695 27.9405 32.9142 27.8989 33.2275 27.74C33.5407 27.5811 33.8084 27.3119 33.9968 26.9666C34.1852 26.6212 34.2857 26.2152 34.2857 25.7999C34.2853 25.2431 34.1045 24.7093 33.7831 24.3155C33.4617 23.9218 33.026 23.7004 32.5714 23.6999Z" fill="#252525"/>
</svg>
