<svg width="48" height="48" viewBox="0 0 48 48" fill="none" xmlns="http://www.w3.org/2000/svg">
<rect width="48" height="48" rx="4" fill="#D9D9D9"/>
<path d="M20.0357 16.6374L23.1288 14.4553H26.9388L25.7473 11.1821H22.9106V9H27.2748L28.4663 12.2732H32.7301V15.5463H29.6577L31.2463 19.9127C32.4516 19.951 33.6007 20.4316 34.4744 21.2629C35.3481 22.0941 35.8854 23.2179 35.9837 24.4198C36.0819 25.6218 35.7344 26.8179 35.0074 27.78C34.2803 28.7422 33.2246 29.4031 32.0415 29.6367C30.8583 29.8703 29.6306 29.6604 28.5924 29.0468C27.5542 28.4333 26.7781 27.4591 26.4121 26.31C26.0461 25.1609 26.1158 23.9173 26.6079 22.8164C27.1001 21.7154 27.9802 20.8341 29.0805 20.3404L27.732 16.6374H26.6987L24.9727 23.0419L21.7814 24.2082C21.8965 25.1271 21.7495 26.0599 21.3571 26.8988C20.9648 27.7377 20.3432 28.4485 19.564 28.9492C18.7849 29.4499 17.8801 29.72 16.954 29.7284C16.0279 29.7367 15.1184 29.483 14.3304 28.9964C13.5423 28.5099 12.908 27.8104 12.5006 26.9787C12.0932 26.147 11.9293 25.217 12.0279 24.2961C12.1265 23.3753 12.4835 22.5011 13.0578 21.7745C13.632 21.0479 14.4001 20.4985 15.2732 20.1898V18.8195H13.0911V16.6374H20.0357ZM16.9098 27.5479C17.6332 27.5479 18.327 27.2605 18.8385 26.749C19.3501 26.2375 19.6374 25.5437 19.6374 24.8203C19.6374 24.0969 19.3501 23.4031 18.8385 22.8916C18.327 22.38 17.6332 22.0926 16.9098 22.0926C16.1864 22.0926 15.4926 22.38 14.9811 22.8916C14.4696 23.4031 14.1822 24.0969 14.1822 24.8203C14.1822 25.5437 14.4696 26.2375 14.9811 26.749C15.4926 27.2605 16.1864 27.5479 16.9098 27.5479ZM31.0935 27.5479C31.8169 27.5479 32.5107 27.2605 33.0222 26.749C33.5338 26.2375 33.8211 25.5437 33.8211 24.8203C33.8211 24.0969 33.5338 23.4031 33.0222 22.8916C32.5107 22.38 31.8169 22.0926 31.0935 22.0926C30.3701 22.0926 29.6763 22.38 29.1648 22.8916C28.6533 23.4031 28.3659 24.0969 28.3659 24.8203C28.3659 25.5437 28.6533 26.2375 29.1648 26.749C29.6763 27.2605 30.3701 27.5479 31.0935 27.5479Z" fill="#252525"/>
</svg>
