<svg width="24" height="21" viewBox="0 0 24 21" fill="none" xmlns="http://www.w3.org/2000/svg">
<path fill-rule="evenodd" clip-rule="evenodd" d="M18.8571 0H13.7143V2.1H18.8571C19.0845 2.1 19.3025 2.21062 19.4632 2.40754C19.624 2.60445 19.7143 2.87152 19.7143 3.15C19.7143 3.42848 19.624 3.69555 19.4632 3.89246C19.3025 4.08938 19.0845 4.2 18.8571 4.2H16.2857C16.1589 4.20009 16.0338 4.23463 15.9192 4.30112C15.8047 4.36761 15.7036 4.4644 15.6232 4.58451C15.5429 4.70462 15.4853 4.84507 15.4546 4.99573C15.4239 5.1464 15.4209 5.30353 15.4457 5.4558L16.2377 10.3078L14.0863 14.7H11.7806L9.57599 5.69625C9.47147 5.26261 9.25483 4.88227 8.95866 4.61244C8.66249 4.3426 8.30281 4.19787 7.93371 4.2H3.42857V6.3H7.93371L8.448 8.4H4.28571C3.14949 8.40167 2.06019 8.95533 1.25676 9.93953C0.453327 10.9237 0.00136102 12.2581 0 13.65V15.75C0 16.0285 0.0903058 16.2956 0.251051 16.4925C0.411797 16.6894 0.629814 16.8 0.857142 16.8H1.71428C1.71428 17.9139 2.07551 18.9822 2.71849 19.7698C3.36147 20.5575 4.23354 21 5.14285 21C6.05217 21 6.92424 20.5575 7.56722 19.7698C8.2102 18.9822 8.57142 17.9139 8.57142 16.8H14.5714C14.7193 16.8 14.8647 16.7531 14.9934 16.6638C15.1221 16.5746 15.2298 16.4461 15.306 16.2908L17.8774 11.0408C17.9872 10.8166 18.0248 10.5505 17.9828 10.2942L17.3314 6.3H18.8571C19.5391 6.3 20.1932 5.96813 20.6754 5.37739C21.1576 4.78665 21.4286 3.98543 21.4286 3.15C21.4286 2.31457 21.1576 1.51335 20.6754 0.922613C20.1932 0.331874 19.5391 0 18.8571 0ZM5.14285 18.9C4.68834 18.8994 4.25257 18.678 3.93117 18.2843C3.60978 17.8906 3.42902 17.3568 3.42857 16.8H6.85714C6.85669 17.3568 6.67593 17.8906 6.35454 18.2843C6.03314 18.678 5.59737 18.8994 5.14285 18.9ZM20.5714 20.9999C19.8933 20.9999 19.2305 20.7535 18.6666 20.292C18.1028 19.8305 17.6634 19.1746 17.4039 18.4071C17.1444 17.6397 17.0765 16.7952 17.2087 15.9805C17.341 15.1658 17.6676 14.4174 18.1471 13.83C18.6266 13.2426 19.2375 12.8426 19.9026 12.6806C20.5676 12.5185 21.257 12.6017 21.8835 12.9196C22.51 13.2374 23.0455 13.7758 23.4222 14.4665C23.7989 15.1571 24 15.9692 24 16.7999C23.9989 17.9133 23.6373 18.9808 22.9946 19.7682C22.3518 20.5555 21.4804 20.9985 20.5714 20.9999ZM20.5714 14.6999C20.2324 14.6999 19.9009 14.823 19.619 15.0538C19.3371 15.2845 19.1174 15.6125 18.9876 15.9962C18.8579 16.3799 18.8239 16.8022 18.8901 17.2095C18.9562 17.6169 19.1195 17.9911 19.3593 18.2848C19.599 18.5785 19.9045 18.7785 20.237 18.8595C20.5695 18.9405 20.9142 18.8989 21.2275 18.74C21.5407 18.5811 21.8084 18.3119 21.9968 17.9666C22.1852 17.6212 22.2857 17.2152 22.2857 16.7999C22.2853 16.2431 22.1045 15.7093 21.7831 15.3155C21.4617 14.9218 21.026 14.7004 20.5714 14.6999Z" fill="#252525"/>
</svg>
