<svg width="24" height="21" viewBox="0 0 24 21" fill="none" xmlns="http://www.w3.org/2000/svg">
<path d="M8.03568 7.63738L11.1288 5.45527H14.9388L13.7473 2.18211H10.9106V0H15.2748L16.4663 3.27316H20.7301V6.54632H17.6577L19.2463 10.9127C20.4516 10.951 21.6007 11.4316 22.4744 12.2629C23.3481 13.0941 23.8854 14.2179 23.9837 15.4198C24.082 16.6218 23.7344 17.8179 23.0074 18.78C22.2803 19.7422 21.2246 20.4031 20.0415 20.6367C18.8583 20.8703 17.6306 20.6604 16.5924 20.0468C15.5542 19.4333 14.7781 18.4591 14.4121 17.31C14.0461 16.1609 14.1158 14.9173 14.6079 13.8164C15.1001 12.7154 15.9802 11.8341 17.0805 11.3404L15.732 7.63738H14.6987L12.9727 14.0419L9.78137 15.2082C9.89655 16.1271 9.74948 17.0599 9.35713 17.8988C8.96478 18.7377 8.34317 19.4485 7.56405 19.9492C6.78493 20.4499 5.8801 20.72 4.95401 20.7284C4.02793 20.7367 3.11837 20.483 2.33035 19.9964C1.54233 19.5099 0.908 18.8104 0.50059 17.9787C0.0931804 17.147 -0.0706889 16.217 0.0279034 15.2961C0.126496 14.3753 0.483528 13.5011 1.05778 12.7745C1.63203 12.0479 2.40007 11.4985 3.27323 11.1898V9.81948H1.09112V7.63738H8.03568ZM4.90981 18.5479C5.63323 18.5479 6.32701 18.2605 6.83854 17.749C7.35007 17.2375 7.63745 16.5437 7.63745 15.8203C7.63745 15.0969 7.35007 14.4031 6.83854 13.8916C6.32701 13.38 5.63323 13.0926 4.90981 13.0926C4.1864 13.0926 3.49261 13.38 2.98108 13.8916C2.46955 14.4031 2.18218 15.0969 2.18218 15.8203C2.18218 16.5437 2.46955 17.2375 2.98108 17.749C3.49261 18.2605 4.1864 18.5479 4.90981 18.5479ZM19.0935 18.5479C19.8169 18.5479 20.5107 18.2605 21.0222 17.749C21.5338 17.2375 21.8211 16.5437 21.8211 15.8203C21.8211 15.0969 21.5338 14.4031 21.0222 13.8916C20.5107 13.38 19.8169 13.0926 19.0935 13.0926C18.3701 13.0926 17.6763 13.38 17.1648 13.8916C16.6533 14.4031 16.3659 15.0969 16.3659 15.8203C16.3659 16.5437 16.6533 17.2375 17.1648 17.749C17.6763 18.2605 18.3701 18.5479 19.0935 18.5479Z" fill="#252525"/>
</svg>
